# xmcd CD database file
#
# Track frame offsets:
#	150
#	20282
#	38677
#	56937
#	72435
#	90097
#	108080
#	122452
#	137357
#	161392
#
# Disc length: 2769 seconds
#
# Revision: 0
# Processed by: cddbd v1.4PL0 Copyright (c) Steve Scherf et al.
# Submitted via: CDex 1.50beta9
#
DISCID=6f0acf0a
DTITLE=Fiona Kernaghan - Cypress Grove
DYEAR=1995
DGENRE=Country
TTITLE0=I am not your TV
TTITLE1=Roadhouse dive
TTITLE2=When I'm with you
TTITLE3=Has anyone ever loved you
TTITLE4=Scatter ahatter
TTITLE5=Only a breath away
TTITLE6=My Blessings
TTITLE7=The riverbed
TTITLE8=Cypress Grove
TTITLE9=Godd night for dreaming
EXTD=YEAR: 1995
EXTT0=
EXTT1=
EXTT2=
EXTT3=
EXTT4=
EXTT5=
EXTT6=
EXTT7=
EXTT8=
EXTT9=
PLAYORDER=
